<svg version="1.1" id="Layer_1" xmlns="http://www.w3.org/2000/svg" xmlns:xlink="http://www.w3.org/1999/xlink" x="0px" y="0px" viewBox="0 0 238 260.9" style="enable-background:new 0 0 1102.7 260.9;" xml:space="preserve">
  <style type="text/css">
    .st1{fill-rule:evenodd;clip-rule:evenodd;fill:#2366CC;}
  </style>
  <path class="st1" d="M175.3,37.7c-18.4,0-30.5,8.6-39.2,20.4V40h-35.7v163.5h35.7v-54.1c8.4,10.1,20.2,19,39.2,19
    c30,0,57.6-23,57.6-65.4v-0.3C232.9,60.7,204.7,37.6,175.3,37.7L175.3,37.7z M196.9,103c0,21.3-14.1,34.9-30.8,34.9
    s-30.5-13.8-30.5-34.9v-0.3c0-21,13.8-34.8,30.5-34.8s30.8,13.8,30.8,34.8L196.9,103z M67.3,103v-0.6c0-23-15.3-38.3-33.3-38.3
    c-18.4,0-34,15.3-34,38.3v0.6c0,23.3,15.6,38.3,34,38.3C52.1,141.3,67.3,126,67.3,103z"/>
  <path class="st1" d="M182.8,208.1c-7.8,8.9-35.4,36-77.8,36s-69.7-27.1-77.4-36l-9.2,8.6c4,5.5,14.1,16.1,26.7,24.5
    c15.8,10.7,36.6,19.6,59.9,19.6s44.4-8.9,60.2-19.6c10.1-6.7,19-15,26.5-24.5L182.8,208.1z"/>
</svg>