<svg width="inherit" height="inherit" viewBox="0 0 45 33" fill="none" xmlns="http://www.w3.org/2000/svg">
  <g clip-path="url(#clip0_118_1083)">
    <path d="M1.5232 32.3139C0.796459 31.9356 0.335071 31.3187 0.139042 30.4705C0.0242926 30.0463 -0.0187383 29.6439 0.00994896 29.2632C0.0362456 28.8849 0.160557 28.1475 0.380493 27.0535C0.600429 25.9594 0.911208 24.5329 1.31522 22.7714H5.78805C5.35056 24.6847 5.05174 26.0197 4.89396 26.7787C4.73379 27.5378 4.66446 28.0077 4.68359 28.1909C4.77443 28.586 5.05891 28.7836 5.54181 28.7836C6.08448 28.7836 6.45981 28.586 6.67257 28.1909C6.78015 27.9788 6.90924 27.6222 7.05268 27.1209C7.19611 26.6197 7.40888 25.7618 7.68619 24.5473C8.00653 23.1521 8.20256 22.1954 8.27667 21.6774C8.35078 21.1617 8.3436 20.6918 8.26232 20.2652C8.17148 19.8701 7.99936 19.5062 7.74356 19.1712C7.48777 18.8387 7.10527 18.4724 6.59368 18.0772C5.78326 17.4097 5.17366 16.8097 4.76965 16.2771C4.36324 15.747 4.0955 15.1759 3.96401 14.5686C3.79189 13.8698 3.76559 13.0963 3.88512 12.2457C4.00465 11.395 4.29392 9.96847 4.75291 7.96358C4.98958 6.93221 5.20474 6.05748 5.39838 5.3442C5.59202 4.63092 5.76892 4.08391 5.93148 3.70558C6.09404 3.32725 6.31398 2.92483 6.59129 2.49831C7.18416 1.61876 7.92525 0.980177 8.81455 0.584981C9.70147 0.189785 10.794 -0.0078125 12.0897 -0.0078125C13.3854 -0.0078125 14.4851 0.182556 15.2118 0.560884C15.9386 0.941621 16.4 1.5561 16.596 2.40433C16.6557 2.79952 16.682 3.17785 16.6749 3.54413C16.6653 3.908 16.5458 4.63092 16.3163 5.70807C16.0844 6.78522 15.7712 8.19009 15.3744 9.92028H10.9924C11.4155 8.0696 11.7072 6.76353 11.8674 6.00447C12.0251 5.2454 12.0921 4.78996 12.0682 4.63815C12.0275 4.42609 11.9391 4.28151 11.8052 4.2044C11.6713 4.12969 11.4705 4.09114 11.198 4.09114C10.6864 4.09114 10.323 4.28874 10.1127 4.68393C10.0409 4.86707 9.94531 5.18516 9.82578 5.6406C9.70625 6.09603 9.52217 6.86956 9.27116 7.96358C8.95799 9.32989 8.76196 10.2576 8.68068 10.742C8.5994 11.2288 8.60418 11.6673 8.69502 12.0625C8.78587 12.4577 8.95799 12.8144 9.21857 13.1324C9.47675 13.4505 9.86164 13.8096 10.3732 14.2024C11.1669 14.8096 11.7741 15.3855 12.1901 15.9326C12.6061 16.4796 12.8786 17.0699 13.0029 17.7085C13.1248 18.2242 13.1846 18.7254 13.1774 19.2122C13.1702 19.699 13.0722 20.3881 12.8834 21.2846C12.6921 22.181 12.4531 23.2654 12.159 24.5401C11.9008 25.663 11.6761 26.6125 11.4849 27.386C11.2912 28.1595 11.1119 28.7451 10.947 29.1403C10.782 29.5355 10.5597 29.9451 10.2824 30.3692C9.14685 32.0392 7.26783 32.8754 4.64773 32.8754C3.29225 32.8754 2.25234 32.685 1.52559 32.3067L1.5232 32.3139Z" fill="#003DFF"></path>
    <path d="M17.3724 19.7205L17.6951 0.363101H21.9862L20.9463 13.9805L26.1889 0.363101H30.4825L21.893 19.7205L18.9621 32.5186H14.4439L17.3748 19.7205H17.3724Z" fill="#003DFF"></path>
    <path d="M33.8303 4.64519H29.9455L30.9257 0.363101H39.8259L29.2857 28.2365H33.3521L32.372 32.5186H23.2447L33.8303 4.64519Z" fill="#003DFF"></path>
    <path d="M41.181 0.363101H45.6992L39.3163 28.2365H43.3875L42.4073 32.5186H33.8179L41.181 0.363101Z" fill="#003DFF"></path>
  </g>
  <defs>
    <clipPath id="clip0_118_1083">
      <rect width="45.8877" height="32.8832" fill="white"></rect>
    </clipPath>
  </defs>
</svg>